# xmcd CD database file
#
# Track frame offsets:
#	150
#	15702
#	40097
#	57690
#	77305
#	99241
#	124630
#	142697
#	166604
#	188094
#	208411
#	232451
#	250942
#	272951
#	292341
#	314231
#
# Disc length: 4432 seconds
#
# Revision: 0
# Processed by: cddbd v1.5PL3 Copyright (c) Steve Scherf et al.
# Submitted via: CDex 1.50beta9
#
DISCID=ed114e10
DTITLE=Various Artist - J-HIPHOP
DYEAR=1900
DGENRE=Hip-Hop
TTITLE0=KOKORO WARP/SHAKKAZOMBIE
TTITLE1=So tight,So deep/SHAKKAZOMBIE
TTITLE2=The answer/S-WORD feat Christina Millian
TTITLE3=Night 4 Playerz/DS455 feat MAY
TTITLE4=Ride with tha DSC/DS455
TTITLE5=Nitro microphone underground
TTITLE6=恋はオートマ/DABO feat Hi-D
TTITLE7=3 on 3/3銃shit
TTITLE8=Hey girl/ozrosaurus feat cornhead
TTITLE9=変態マスター/soffet
TTITLE10=It's OKAY/SHAKKAZOMBIE feat DABO
TTITLE11=4 Minutes of yell/DELI feat S-WORD
TTITLE12=AREA AREA/ozrosaurus
TTITLE13=Off the fook/soffet
TTITLE14=マイペース/soffet
TTITLE15=Beat on tactics/LUNCH TIME SPEAKS
EXTD=
EXTT0=
EXTT1=
EXTT2=
EXTT3=
EXTT4=
EXTT5=
EXTT6=
EXTT7=
EXTT8=
EXTT9=
EXTT10=
EXTT11=
EXTT12=
EXTT13=
EXTT14=
EXTT15=
PLAYORDER=
